HIERARCHY
ROOT root
{
	OFFSET 0.000000 0.000000 0.000000
	CHANNELS 6 Xposition Yposition Zposition Zrotation Yrotation Xrotation
	JOINT lhip
	{
		OFFSET 0.058581 -0.082280 -0.017664
		CHANNELS 3 Zrotation Yrotation Xrotation
		JOINT lknee
		{
			OFFSET 0.043451 -0.386469 0.008037
			CHANNELS 3 Zrotation Yrotation Xrotation
			JOINT lankle
			{
				OFFSET -0.014790 -0.426874 -0.037428
				CHANNELS 3 Zrotation Yrotation Xrotation
				JOINT ltoe
				{
					OFFSET 0.041054 -0.060286 0.122042
					CHANNELS 3 Zrotation Yrotation Xrotation
					End Site
					{
						OFFSET 0.000000 0.000000 0.000000
					}
				}
			}
		}
	}
	JOINT rhip
	{
		OFFSET -0.060310 -0.090513 -0.013543
		CHANNELS 3 Zrotation Yrotation Xrotation
		JOINT rknee
		{
			OFFSET -0.043257 -0.383688 -0.004843
			CHANNELS 3 Zrotation Yrotation Xrotation
			JOINT rankle
			{
				OFFSET 0.019056 -0.420046 -0.034562
				CHANNELS 3 Zrotation Yrotation Xrotation
				JOINT rtoe
				{
					OFFSET -0.034840 -0.062106 0.130323
					CHANNELS 3 Zrotation Yrotation Xrotation
					End Site
					{
						OFFSET 0.000000 0.000000 0.000000
					}
				}
			}
		}
	}
	JOINT lowerback
	{
		OFFSET 0.004439 0.124404 -0.038385
		CHANNELS 3 Zrotation Yrotation Xrotation
		JOINT upperback
		{
			OFFSET 0.004488 0.137956 0.026820
			CHANNELS 3 Zrotation Yrotation Xrotation
			JOINT chest
			{
				OFFSET -0.002265 0.056032 0.002855
				CHANNELS 3 Zrotation Yrotation Xrotation
				JOINT lowerneck
				{
					OFFSET -0.013390 0.211636 -0.033468
					CHANNELS 3 Zrotation Yrotation Xrotation
					JOINT upperneck
					{
						OFFSET 0.010113 0.088937 0.050410
						CHANNELS 3 Zrotation Yrotation Xrotation
						End Site
						{
							OFFSET 0.000000 0.000000 0.000000
						}
					}
				}
				JOINT lclavicle
				{
					OFFSET 0.071702 0.114000 -0.018898
					CHANNELS 3 Zrotation Yrotation Xrotation
					JOINT lshoulder
					{
						OFFSET 0.122921 0.045205 -0.019046
						CHANNELS 3 Zrotation Yrotation Xrotation
						JOINT lelbow
						{
							OFFSET 0.255332 -0.015649 -0.022946
							CHANNELS 3 Zrotation Yrotation Xrotation
							JOINT lwrist
							{
								OFFSET 0.265709 0.012698 -0.007375
								CHANNELS 3 Zrotation Yrotation Xrotation
								End Site
								{
									OFFSET 0.000000 0.000000 0.000000
								}
							}
						}
					}
				}
				JOINT rclavicle
				{
					OFFSET -0.082954 0.112472 -0.023707
					CHANNELS 3 Zrotation Yrotation Xrotation
					JOINT rshoulder
					{
						OFFSET -0.113228 0.046853 -0.008472
						CHANNELS 3 Zrotation Yrotation Xrotation
						JOINT relbow
						{
							OFFSET -0.260127 -0.014369 -0.031269
							CHANNELS 3 Zrotation Yrotation Xrotation
							JOINT rwrist
							{
								OFFSET -0.269108 0.006794 -0.006027
								CHANNELS 3 Zrotation Yrotation Xrotation
								End Site
								{
									OFFSET 0.000000 0.000000 0.000000
								}
							}
						}
					}
				}
			}
		}
	}
}
MOTION
Frames: 15
Frame Time: 0.033333
0.765651 -1.536302 0.769706 143.766658 0.225498 77.192781 19.781708 9.431747 -49.476293 -13.438490 4.519709 44.474036 -5.694702 -0.271714 3.001794 0.000000 -0.000000 0.000000 -33.064385 -6.715128 -7.788180 14.283530 23.247051 72.936854 7.643944 14.460009 -25.725214 0.000000 -0.000000 0.000000 12.268623 12.644267 39.876173 3.002877 9.160571 13.141339 2.000421 10.250001 -3.141895 1.543025 -12.734585 -4.647351 1.944734 -6.516556 -10.327433 -33.417524 -1.545874 10.447479 -44.721239 36.532562 15.931073 -28.491331 -48.476075 47.553391 -1.063851 -10.056884 -9.659443 28.005288 29.898552 9.331237 9.349556 13.149421 -18.048989 -15.683171 11.274675 -33.439711 8.785037 -2.056042 36.498239 
0.743681 -1.407469 0.759729 138.294974 1.365744 79.076229 25.526929 8.212163 -45.601593 -9.755109 1.644685 43.959966 -10.839413 -0.015429 4.598170 0.000000 -0.000000 0.000000 -37.167373 -4.618812 -4.064756 9.631591 26.635327 61.008369 11.432190 12.783416 -16.006092 0.000000 -0.000000 0.000000 11.425470 13.752108 35.360374 3.036995 8.954944 13.957283 2.508419 8.871695 -3.668275 1.616282 -14.650443 -4.618066 3.575078 -4.937475 -6.095940 -36.663148 -0.123932 9.992886 -52.743523 31.889771 14.239833 -22.409232 -49.399290 38.766307 5.304804 -8.750154 -7.808595 28.098658 25.013966 8.081489 7.726801 8.120737 -12.819782 -10.892293 30.423641 -25.832800 16.130449 1.319987 25.189796 
0.715578 -1.286882 0.752617 131.765291 2.607978 80.831699 25.267382 9.522306 -51.464239 -10.463548 8.230202 64.426425 -2.971214 0.074807 -11.589463 0.000000 -0.000000 0.000000 -40.327236 -7.094388 -6.603404 3.426031 18.381319 51.908793 12.474668 -0.067383 -7.553815 0.000000 -0.000000 0.000000 10.262742 11.231591 35.876110 1.309986 7.546590 7.794473 1.860190 6.845886 -0.611729 3.037975 -18.490803 -8.927864 6.731629 -0.518560 -4.942641 -37.344017 -2.527445 10.729202 -58.160214 24.384310 15.017228 -20.061037 -49.956293 39.344958 8.377308 -8.641680 -9.885251 22.253642 24.513399 7.185496 10.396461 5.417720 -3.505735 -15.163826 49.325154 -21.974763 22.330701 3.742523 9.660643 
0.684172 -1.156295 0.767404 122.641122 3.591051 80.911523 22.520196 11.263406 -47.556631 -5.392825 14.316910 74.207248 1.402319 1.713515 -25.851051 0.000000 -0.000000 0.000000 -36.243640 -11.934634 -14.226052 -0.849812 4.888713 51.484240 10.791348 -7.925664 -13.156740 0.000000 -0.000000 0.000000 6.153801 8.932665 37.762803 1.224407 3.705342 7.002462 1.907862 3.430858 -2.310061 8.335035 -20.066536 -12.406239 9.261280 -3.712334 -2.590352 -36.110805 -8.951629 11.928299 -56.398179 16.382769 18.176807 -15.913455 -47.917107 45.330679 13.806793 -18.201547 0.891404 18.036047 25.161998 3.222268 15.487459 7.109354 -2.430595 -22.001474 61.515496 -27.252973 31.984255 9.823903 -9.920692 
0.669081 -1.077893 0.783066 116.130605 5.597791 80.933369 20.943376 13.527919 -44.138502 0.355956 16.835620 78.666821 3.131151 0.968371 -32.037537 0.000000 -0.000000 0.000000 -30.568127 -9.995079 -19.289924 -4.338213 -1.648754 56.428242 5.743110 -7.362177 -15.992026 0.000000 -0.000000 0.000000 5.299718 6.489453 36.134775 1.002801 2.948964 7.860818 2.107790 1.342622 -5.233381 9.824070 -23.855239 -6.759185 10.571835 -7.948310 -3.996901 -36.481837 -9.546231 13.114331 -51.489598 18.436318 11.392547 -16.272797 -53.952472 56.262437 -38.870442 6.075644 35.129239 17.012816 25.143085 5.286427 21.092798 5.266387 -4.879023 -26.685237 66.126250 -30.051447 46.999962 12.996315 -16.717975 
0.649390 -0.974497 0.804668 109.564563 6.479120 80.873512 15.650385 14.613761 -41.728600 0.631370 18.291112 80.953802 5.978712 7.995520 -33.077149 0.000000 -0.000000 0.000000 -24.640312 -8.280094 -26.891022 0.057578 -2.771273 66.673932 5.992289 -8.127940 -16.773579 0.000000 -0.000000 0.000000 3.665661 2.220097 35.327905 2.205629 0.440912 3.180410 1.408979 -0.927412 -1.980090 9.946594 -32.656267 -5.876759 13.448311 -12.799305 -4.098017 -35.291946 -7.420748 15.194203 -50.176485 19.590504 11.859404 -8.076654 -46.425999 25.767592 0.171503 -9.966323 1.913511 14.772532 20.876836 0.760718 25.962751 1.970813 2.192919 -32.096324 72.641264 -36.073020 40.737157 18.164445 -24.408725 
0.629554 -0.875556 0.831208 102.259248 5.648939 80.359193 12.418855 13.906084 -39.542587 0.518105 21.360298 82.121547 2.745510 6.419734 -24.842466 0.000000 -0.000000 0.000000 -19.924654 -4.302042 -32.909085 1.466447 -6.359673 74.796117 5.583780 -4.680616 -17.133932 0.000000 -0.000000 0.000000 1.629088 -1.577632 35.061099 3.286457 -2.782434 3.046566 0.650031 -3.945043 -2.784004 11.772020 -38.287848 -6.505236 16.424617 -21.132439 -6.843096 -36.223994 -5.575717 16.742271 -51.097326 22.703740 10.430499 -5.525121 -39.988754 19.000483 -2.576837 -11.184744 3.262286 12.892127 16.541744 -1.134877 30.469487 -2.352110 3.318345 -47.546629 78.600857 -51.525813 38.743822 23.668289 -33.660956 
0.611088 -0.785563 0.858130 92.962773 4.514428 79.865385 11.672758 13.588651 -38.431143 -2.711389 20.797336 80.865706 -1.767512 -1.030370 -14.160566 0.000000 -0.000000 0.000000 -12.593556 0.280455 -37.687526 -0.100425 -9.063143 80.726278 3.065756 -3.860710 -16.810499 0.000000 -0.000000 0.000000 -1.571387 -4.122939 34.654730 4.262024 -6.173236 3.303932 0.820151 -7.345925 -4.659819 11.597983 -43.083347 -3.765365 19.095745 -26.176365 -8.601034 -36.915818 -4.349016 19.457688 -56.496388 26.266480 9.310782 -6.803376 -38.321491 24.313519 -14.285220 -6.926226 9.397352 10.740791 12.936224 -1.448465 35.048278 -7.047328 1.592114 -84.071009 79.696489 -84.176386 40.173472 26.202089 -35.863316 
0.594640 -0.700390 0.878149 82.444109 3.016492 79.642210 11.595525 12.307155 -36.197302 -5.622403 17.686406 76.355004 -1.185757 -3.657385 -14.206654 0.000000 -0.000000 0.000000 -4.359703 5.219247 -39.275788 -0.322169 -10.791487 83.570498 0.624715 -5.493809 -14.814434 0.000000 -0.000000 0.000000 -4.795119 -6.779129 32.581746 4.545033 -9.343606 2.555412 0.508337 -10.953187 -4.284428 10.528249 -47.615257 -0.496813 20.011521 -28.825430 -8.100493 -36.784569 -1.617677 22.327526 -62.500280 27.042043 8.560124 -10.811766 -39.747568 25.949494 -15.790144 -11.567845 5.871877 7.171177 8.110274 -3.838737 38.843195 -8.723313 0.777286 -97.729445 78.983923 -96.271998 38.770230 27.618658 -38.943260 
0.574412 -0.595088 0.895865 68.586121 0.360711 79.430455 10.993193 7.332649 -31.204208 -8.500092 10.383454 65.866170 -1.342572 -3.827904 -19.885803 0.000000 -0.000000 0.000000 2.814949 9.641679 -35.457719 -0.512791 -13.412480 84.917249 1.577774 -6.453925 -13.980594 0.000000 -0.000000 0.000000 -7.196965 -9.718318 29.029304 4.416223 -12.992992 2.740324 -0.165921 -13.752751 -4.260684 11.890235 -48.449360 -0.598737 20.358238 -30.073476 -9.240336 -36.216490 0.081896 22.092566 -67.685592 27.741921 8.787133 -12.076030 -41.883106 29.933515 -21.203684 -12.353405 5.889421 4.672687 2.753863 -5.884857 41.530569 -11.054829 -1.223739 -111.078547 73.204882 -104.653592 38.597166 26.270631 -35.008493 
0.562529 -0.512752 0.901365 53.049183 -3.915148 79.653498 8.487749 4.017307 -25.811725 -11.436721 4.274396 57.429429 -0.916908 -4.308262 -24.844205 0.000000 -0.000000 0.000000 4.981835 10.103145 -28.782137 -0.297518 -11.665811 86.157924 2.669899 -7.965909 -13.965882 0.000000 -0.000000 0.000000 -7.923445 -9.154309 25.366678 3.345780 -13.853685 1.587741 -1.312656 -14.209698 -3.480048 13.195692 -47.402823 -2.250439 19.799302 -30.595869 -11.253634 -35.090756 1.635350 20.501529 -68.999616 27.537717 6.844517 -9.264886 -41.165504 27.993213 -22.137728 -11.626084 4.266906 3.518275 -1.978306 -8.996184 45.378853 -11.848136 -2.360029 -119.991887 66.993220 -108.166931 36.378661 21.325381 -28.609361 
0.548265 -0.429284 0.899056 34.672098 -8.404133 82.722392 5.684714 4.229364 -24.337044 -11.872744 4.874882 49.643366 2.196771 -2.047459 -26.573864 0.000000 -0.000000 0.000000 1.764791 7.297910 -24.871165 0.890264 -7.089114 88.565631 2.222632 -11.993320 -13.779459 0.000000 -0.000000 0.000000 -8.216130 -7.073438 21.188423 3.880275 -13.167955 -1.183892 -1.527286 -12.980857 -1.952318 15.089366 -46.466804 -6.590366 18.081030 -29.242497 -11.300293 -34.185989 2.977064 18.976470 -68.646321 26.013656 4.250517 -6.377210 -39.034821 26.257346 -12.639810 -9.975925 5.623925 4.698392 -4.629879 -10.180261 48.458991 -11.028928 -3.366107 -127.241954 58.368233 -110.648884 34.496516 16.291889 -18.342432 
0.532679 -0.346821 0.892521 15.241695 -10.703843 86.021866 6.516930 8.315348 -27.768841 -8.727771 16.439646 47.502817 2.466013 5.145858 -19.958848 0.000000 -0.000000 0.000000 -5.743377 3.075262 -23.085572 1.370355 -2.858614 91.049487 -0.179722 -15.856136 -13.836065 0.000000 -0.000000 0.000000 -7.112848 -4.628049 18.146707 5.361010 -12.038818 -1.226746 -0.541685 -10.941172 -1.715460 16.231080 -44.980472 -10.667052 17.102015 -26.994496 -11.095676 -34.114732 3.325937 18.353674 -66.460053 24.849453 1.330950 -4.462567 -40.208264 22.291681 0.225239 -8.179322 1.998150 9.290213 -3.030267 -9.313192 47.879196 -7.045408 -3.399586 -130.164418 52.265548 -110.061976 27.909682 9.507517 -4.761075 
0.516093 -0.266854 0.885497 -3.673715 -10.302256 88.090501 11.523262 13.035607 -27.358433 -8.204436 23.215181 43.941358 3.249449 10.208932 -16.646186 0.000000 -0.000000 0.000000 -15.275597 -1.411458 -23.446609 2.215354 -1.109485 91.408765 -2.259745 -18.656427 -14.175115 0.000000 -0.000000 0.000000 -4.424416 -3.396237 17.739711 7.415198 -9.812021 -0.543413 1.089691 -8.802585 -1.917832 16.496737 -41.020048 -15.363828 12.626629 -25.303385 -8.922247 -34.836383 3.426709 17.665493 -61.933066 24.425023 -0.002567 -3.793227 -42.792474 17.557240 7.087791 -6.719015 -1.340553 14.604596 1.655199 -8.241084 41.702826 0.577472 -1.654502 -126.051429 53.754585 -106.197360 23.249488 4.125820 11.748800 
0.497507 -0.192808 0.879967 -20.339915 -8.987814 87.762522 16.957822 18.021907 -24.649646 -7.396213 24.197399 41.711521 4.230374 15.246632 -13.046194 0.000000 -0.000000 0.000000 -24.913382 -8.072085 -23.699969 1.940694 -1.821084 87.271775 -3.666964 -21.337384 -15.755094 0.000000 -0.000000 0.000000 0.074071 -3.044676 18.889118 7.849148 -6.742949 0.768259 1.732060 -6.126354 -0.808126 14.866316 -36.249530 -19.191432 9.121457 -25.217329 -5.247896 -34.911631 1.772850 17.017079 -54.641869 22.969843 1.798549 -5.865333 -44.292410 19.037230 18.563933 -5.698105 -4.294007 19.417536 9.236169 -4.080790 34.570286 6.186888 -1.102050 -97.671642 60.875093 -83.026047 8.096208 7.435492 22.035091 
